<?xml version="1.0" standalone="no"?>
<!DOCTYPE svg PUBLIC "-//W3C//DTD SVG 20010904//EN"
 "http://www.w3.org/TR/2001/REC-SVG-20010904/DTD/svg10.dtd">
<svg version="1.0" xmlns="http://www.w3.org/2000/svg"
 width="166.000000pt" height="129.000000pt" viewBox="0 0 166.000000 129.000000"
 preserveAspectRatio="xMidYMid meet">
<metadata>
Created by potrace 1.16, written by Peter Selinger 2001-2019
</metadata>
<g transform="translate(0.000000,129.000000) scale(0.100000,-0.100000)"
fill="#df00ff" stroke="none">
<path d="M899 1143 c27 -76 54 -151 60 -166 6 -16 11 -30 11 -33 0 -2 -208 -4
-462 -4 -255 0 -473 -3 -485 -6 -14 -4 -23 -14 -23 -26 0 -25 51 -144 84 -196
l26 -42 710 0 c563 0 710 3 710 13 0 17 -61 89 -215 253 -71 77 -172 185 -224
242 l-93 102 -74 0 -73 0 48 -137z"/>
<path d="M130 603 c0 -19 44 -75 127 -163 49 -52 138 -149 199 -215 60 -66
130 -142 156 -170 l47 -50 75 -3 76 -4 -49 138 c-27 77 -54 152 -60 167 -6 16
-11 30 -11 33 0 2 208 4 463 4 254 0 473 3 486 7 20 5 22 11 18 38 -3 18 -27
76 -53 129 l-47 96 -714 0 c-392 0 -713 -3 -713 -7z"/>
</g>
</svg>
